<svg width="20" height="21" fill="none" xmlns="http://www.w3.org/2000/svg"><path d="M5.423 17.07a1.516 1.516 0 010 3.03 1.514 1.514 0 110-3.03zm11.252 0a1.516 1.516 0 11-.001 3.032 1.516 1.516 0 010-3.032zM.777.5l.101.011 2.08.36a.75.75 0 01.602.565l.017.111.235 2.802H17.91a2.09 2.09 0 012.086 2.24l-.017.15-.949 6.559a2.554 2.554 0 01-2.363 2.183l-.164.005H5.59a2.553 2.553 0 01-2.525-2.177l-.02-.163L2.132 2.25.622 1.989A.75.75 0 010 1.224l.011-.102A.75.75 0 01.777.5zM17.909 5.85H3.94l.602 7.172c.042.507.438.904.933.959l.116.006h10.912c.483 0 .899-.328 1.019-.786l.024-.117.949-6.558a.59.59 0 00-.497-.67l-.088-.006zM14.9 8.045A.75.75 0 0115 9.538l-.101.007h-2.773a.75.75 0 01-.102-1.493l.102-.007h2.773z" fill="#34393B"/></svg>