<svg width="23" height="26" fill="none" xmlns="http://www.w3.org/2000/svg"><path d="M1.001 23.277l1 .036-1-.036zm20.075 0l1-.035-1 .035zm-.594-16.633l-1 .035 1-.035zm-18.887 0l-1-.036 1 .036zm12.364 3.623a1 1 0 102 0h-2zm-7.128 0a1 1 0 102 0h-2zM3.257 6.04H18.82v-2H3.257v2zm16.226.64l.594 16.633 1.998-.071-.594-16.634-1.998.071zM19.413 24H2.664v2h16.75v-2zM2 23.313l.594-16.634-1.998-.071-.594 16.634L2 23.313zm.663.687A.663.663 0 012 23.313l-1.998-.071A2.663 2.663 0 002.663 26v-2zm17.414-.687a.663.663 0 01-.663.687v2a2.663 2.663 0 002.661-2.758l-1.998.071zM18.82 6.04c.357 0 .65.282.663.64l1.998-.072A2.663 2.663 0 0018.82 4.04v2zm-15.563-2A2.663 2.663 0 00.596 6.608l1.998.071a.663.663 0 01.663-.64v-2zm10.702.524v5.703h2V4.564h-2zm-5.128 5.703V4.564h-2v5.703h2zM11.395 2a2.564 2.564 0 012.564 2.564h2A4.564 4.564 0 0011.395 0v2zm0-2a4.564 4.564 0 00-4.564 4.564h2A2.564 2.564 0 0111.395 2V0z" fill="#34393B"/></svg>