<svg width="20" height="20" fill="none" xmlns="http://www.w3.org/2000/svg"><path d="M4.483.815a6.562 6.562 0 015.25.541l.263.158.268-.159a6.571 6.571 0 014.982-.619l.266.08c3.673 1.182 5.317 5.192 4.082 9.03a12.42 12.42 0 01-2.977 4.736 34.695 34.695 0 01-5.995 4.665l-.23.143a.732.732 0 01-.762.006l-.245-.147a34.717 34.717 0 01-6.005-4.673A12.427 12.427 0 01.405 9.83C-.826 6.006.812 1.997 4.483.815zm4.892 2.04a5.1 5.1 0 00-4.443-.649c-2.845.916-4.134 4.072-3.14 7.16a10.942 10.942 0 002.614 4.168A33.22 33.22 0 0010.144 18l-.143-.09.468-.294a33.217 33.217 0 004.595-3.574l.528-.502a10.935 10.935 0 002.614-4.158c.999-3.101-.296-6.26-3.142-7.175a5.11 5.11 0 00-4.628.78.732.732 0 01-.865.008l-.196-.14zm4.495 1.629a3.441 3.441 0 012.376 2.995.73.73 0 01-1.458.122 1.98 1.98 0 00-1.363-1.725.73.73 0 11.445-1.392z" fill="#34393B"/></svg>