<svg width="87" height="60" fill="none" xmlns="http://www.w3.org/2000/svg"><path d="M0 2.867v27.188h27.2V2.867H0zm24.84 24.83H2.36V5.225h22.48v22.47z" fill="url(#paint0_linear)"/><path d="M9.393 9.16l4.215 11.197L17.815 9.16H21.1v14.61h-2.53v-4.819l.25-6.441-4.317 11.256h-1.817L8.38 12.518l.25 6.433v4.815H6.1V9.156h3.293v.004z" fill="#fff"/><path d="M0 32.812V60h27.2V32.812H0zm24.84 24.83H2.36V35.17h22.48v22.47z" fill="url(#paint1_linear)"/><path d="M8.384 53.711v-14.61h5.008c1.652 0 2.91.33 3.775.995.864.66 1.296 1.647 1.296 2.96 0 .67-.182 1.27-.542 1.804-.36.534-.89.949-1.584 1.245.788.216 1.402.618 1.83 1.211.432.593.648 1.305.648 2.13 0 1.373-.44 2.427-1.322 3.16-.881.736-2.14 1.105-3.779 1.105h-5.33zm2.542-8.457h2.492c.788 0 1.406-.178 1.851-.538.445-.36.67-.864.67-1.52 0-.724-.208-1.245-.62-1.567-.41-.322-1.05-.483-1.923-.483h-2.47v4.108zm0 1.867v4.566h2.822c.796 0 1.42-.2 1.868-.593.45-.394.674-.945.674-1.648 0-1.52-.775-2.295-2.33-2.329h-3.034v.005z" fill="#fff"/><path d="M29.957 2.867v27.188h27.2V2.867h-27.2zm24.84 24.83h-22.48V5.225h22.48v22.47z" fill="url(#paint2_linear)"/><path d="M47.324 17.244H41.32v4.494h7.016v2.028h-9.558V9.156h9.486V11.2H41.32v4.032h6.004v2.011z" fill="#fff"/><path d="M59.8 32.74v27.188H87V32.74H59.8zm24.84 24.829H62.16v-22.47h22.48v22.47z" fill="url(#paint3_linear)"/><path d="M74.667 53.64h-2.53V39.028h2.53v14.61z" fill="#fff"/><path d="M29.957 32.74v27.188h27.2V32.74h-27.2zm24.84 24.829h-22.48v-22.47h22.48v22.47z" fill="url(#paint4_linear)"/><path d="M41.51 51.61h6.636v2.03h-9.177V39.028h2.538V51.61h.004z" fill="#fff"/><path d="M77.688 17.964l-.373.297c-.932.758-1.907 1.707-2.733 2.841-.377.521-.724 1.085-1.02 1.682.08-1.504.24-3.63.559-6.103.334-2.575.843-5.522 1.618-8.533C78.95 7.41 79.743 3.024 77.862 0c-5.52 3.63-3.619 6.928-2.835 7.923-.877 3.405-1.415 6.726-1.75 9.529a78.497 78.497 0 00-.338 3.46c-.551-2.19-1.458-4.154-2.407-5.79.148-1.583.242-6.91-7.393-7.02 1.208 4.416 2.229 7.74 6.842 7.563 1.45 2.532 2.758 5.836 2.758 9.486v.004c0 .051.009.098.026.14a.37.37 0 00.08.119h.005c.033.034.072.059.114.076h.004a.471.471 0 00.136.025.319.319 0 00.14-.03.436.436 0 00.118-.076l.004-.004a.414.414 0 00.077-.114v-.004c.008-.017.012-.039.02-.06.306-1.389.933-2.621 1.712-3.693.899-1.232 1.992-2.244 3.004-3.023 2.995 1.63 6.326-.818 6.953-4.566-7.444-.245-7.576 3.029-7.444 4.02z" fill="url(#paint5_linear)"/><path d="M69.142 29.017h8.537a7.154 7.154 0 002.885-5.458H66.262a7.143 7.143 0 002.88 5.458z" fill="url(#paint6_linear)"/><path d="M66.965 28.395v.347c0 .729.588 1.317 1.317 1.317h10.261c.729 0 1.318-.588 1.318-1.317v-.347H66.964z" fill="url(#paint7_linear)"/><defs><linearGradient id="paint0_linear" x1="0" y1="16.463" x2="27.2" y2="16.463" gradientUnits="userSpaceOnUse"><stop stop-color="#E5007A"/><stop offset="1" stop-color="#8E1D81"/></linearGradient><linearGradient id="paint1_linear" x1="0" y1="46.408" x2="27.2" y2="46.408" gradientUnits="userSpaceOnUse"><stop offset=".012" stop-color="#3FBEE1"/><stop offset="1" stop-color="#008BA8"/></linearGradient><linearGradient id="paint2_linear" x1="29.957" y1="16.463" x2="57.157" y2="16.463" gradientUnits="userSpaceOnUse"><stop offset=".006" stop-color="#FFE200"/><stop offset="1" stop-color="#F59A00"/></linearGradient><linearGradient id="paint3_linear" x1="59.801" y1="46.333" x2="87.001" y2="46.333" gradientUnits="userSpaceOnUse"><stop stop-color="#E5007A"/><stop offset="1" stop-color="#8E1D81"/></linearGradient><linearGradient id="paint4_linear" x1="29.957" y1="46.333" x2="57.157" y2="46.333" gradientUnits="userSpaceOnUse"><stop stop-color="#95C11F"/><stop offset="1" stop-color="#519427"/></linearGradient><linearGradient id="paint5_linear" x1="72.532" y1="3.731" x2="76.907" y2="23.636" gradientUnits="userSpaceOnUse"><stop stop-color="#95C11F"/><stop offset="1" stop-color="#519427"/></linearGradient><linearGradient id="paint6_linear" x1="68.245" y1="23.061" x2="80.106" y2="28.852" gradientUnits="userSpaceOnUse"><stop offset=".012" stop-color="#3FBEE1"/><stop offset="1" stop-color="#008BA8"/></linearGradient><linearGradient id="paint7_linear" x1="66.906" y1="25.804" x2="78.766" y2="31.595" gradientUnits="userSpaceOnUse"><stop offset=".012" stop-color="#3FBEE1"/><stop offset="1" stop-color="#008BA8"/></linearGradient></defs></svg>