<svg width="20" height="20" fill="none" xmlns="http://www.w3.org/2000/svg"><path d="M19.245 12.727c.413 0 .748.335.748.748l-.088 1.143-.026.348c-.026.343-.049.66-.06.842-.056.938-.42 1.895-.973 2.56-.77.929-1.751 1.363-3.085 1.366h-.077l-1.31.001H5.675l-1.31-.001H4.29c-1.335-.003-2.316-.437-3.086-1.366-.552-.665-.917-1.622-.973-2.56a70.883 70.883 0 00-.06-.842l-.027-.348-.087-1.143c0-.413.335-.748.748-.748.393 0 .706.306.736.69 0 0 .154 1.749.187 2.3.037.612.285 1.277.63 1.693.49.59 1.033.822 1.934.824H6.063l.292.001h7.631l1.667-.001h.105c.902-.002 1.444-.233 1.933-.823.347-.417.595-1.082.632-1.693.032-.552.186-2.301.186-2.301a.741.741 0 01.736-.69zm-9.25-.093a.75.75 0 01.75.75v1.294a.75.75 0 01-1.5 0v-1.294a.75.75 0 01.75-.75zM11.286 0a2.953 2.953 0 012.92 2.581h1.977a3.812 3.812 0 013.807 3.808v3.467a.752.752 0 01-.336.626c-2.062 1.364-4.509 2.273-7.078 2.629a.752.752 0 01-.83-.559A1.803 1.803 0 009.99 11.2c-.841 0-1.556.544-1.779 1.356a.745.745 0 01-.827.545c-2.551-.356-4.988-1.261-7.047-2.619A.749.749 0 010 9.856V6.389c0-2.1 1.712-3.808 3.817-3.808h1.967A2.953 2.953 0 018.704 0h2.582zm4.897 4.081H3.817A2.316 2.316 0 001.5 6.389v3.057a15.659 15.659 0 005.511 2.078A3.355 3.355 0 019.99 9.7c1.281 0 2.421.726 2.969 1.833 1.994-.351 3.888-1.066 5.531-2.087V6.389a2.31 2.31 0 00-2.307-2.308zM11.286 1.5H8.704c-.673 0-1.235.461-1.403 1.081h5.387A1.457 1.457 0 0011.286 1.5z" fill="#34393B"/></svg>