<svg width="20" height="20" fill="none" xmlns="http://www.w3.org/2000/svg"><path d="M10 .5a1.515 1.515 0 011.35.84l2.261 4.54c.01.01.02.02.029.02l5.062.73c.396.056.755.264 1 .58a1.494 1.494 0 01-.16 1.97l-3.67 3.55s-.007.007-.007.01 0 0 .007.01l.88 5.01a1.51 1.51 0 01-1.487 1.728 1.489 1.489 0 01-.712-.178l-4.521-2.36a.07.07 0 00-.04.01L5.44 19.34a1.516 1.516 0 01-2.18-1.59l.891-4.99a.041.041 0 00-.011-.03L.44 9.17A1.461 1.461 0 010 8.127c0-.414.166-.811.461-1.1.233-.21.521-.348.83-.4l5.05-.73c.02 0 .041-.009.041-.03L8.64 1.34A1.514 1.514 0 0110 .5zm0 1.46h-.019l-.01.007a.053.053 0 00-.02.022L7.69 6.519a1.514 1.514 0 01-1.129.83l-5.03.721-.061.02a.065.065 0 00-.009.041l3.7 3.55c.352.346.512.843.43 1.33l-.88 4.98v.02c.005.02.023.034.044.034h.016L9.3 15.67c.222-.118.47-.181.721-.181.244-.001.484.059.7.171l4.5 2.35h.009a.077.077 0 00.029.01.013.013 0 00.012 0h.021l.02-.019-.881-4.981a1.45 1.45 0 01.431-1.339l3.67-3.559.01-.022-.01-.009h-.014a.058.058 0 00-.026-.006l-5.062-.736a1.51 1.51 0 01-1.129-.83L10.041 2a.027.027 0 00-.008-.023.035.035 0 00-.024-.008L10 1.96z" fill="#34393B"/></svg>