<svg width="26" height="26" fill="none" xmlns="http://www.w3.org/2000/svg"><path d="M19.993 18.579a1 1 0 00-1.414 1.414l1.414-1.414zm4.3 7.128a1 1 0 001.414-1.414l-1.414 1.414zM20.87 11.435a9.435 9.435 0 01-9.435 9.435v2c6.315 0 11.435-5.12 11.435-11.435h-2zm-9.435 9.435A9.435 9.435 0 012 11.435H0C0 17.75 5.12 22.87 11.435 22.87v-2zM2 11.435A9.435 9.435 0 0111.435 2V0C5.12 0 0 5.12 0 11.435h2zM11.435 2a9.435 9.435 0 019.435 9.435h2C22.87 5.12 17.75 0 11.435 0v2zm7.144 17.993l5.714 5.714 1.414-1.414-5.714-5.714-1.414 1.414z" fill="#34393B"/></svg>