<svg width="17" height="13" fill="none" xmlns="http://www.w3.org/2000/svg"><path d="M5.111 13a9.555 9.555 0 003.639-.695 9.437 9.437 0 003.085-2.023 9.27 9.27 0 002.054-3.037 9.155 9.155 0 00.707-3.582v-.43A6.885 6.885 0 0016.25 1.54a6.962 6.962 0 01-1.913.517A3.326 3.326 0 0015.814.238a6.629 6.629 0 01-2.112.8A3.355 3.355 0 0011.81.044a3.384 3.384 0 00-2.115.343 3.308 3.308 0 00-1.467 1.54 3.24 3.24 0 00-.214 2.1 9.564 9.564 0 01-3.805-.993A9.421 9.421 0 011.145.601a3.235 3.235 0 00-.358 2.383 3.28 3.28 0 001.392 1.98 3.341 3.341 0 01-1.477-.407v.037a3.262 3.262 0 00.73 2.074A3.353 3.353 0 003.324 7.83a3.397 3.397 0 01-1.477.058c.216.642.629 1.203 1.181 1.605a3.366 3.366 0 001.906.642A6.75 6.75 0 01.79 11.589a7.335 7.335 0 01-.79-.065 9.542 9.542 0 005.111 1.454" fill="#fff"/></svg>