<svg width="32" height="28" fill="none" xmlns="http://www.w3.org/2000/svg"><path d="M6.384 20.635a6.161 6.161 0 004.162-1.608.692.692 0 00.22-.513.723.723 0 00-.07-.31L6.49 9.322a.1.1 0 00-.18 0l-4.197 8.86a.824.824 0 00-.08.353c0 .223.09.442.262.592a6.16 6.16 0 004.068 1.507h.021zm0 0v-.1.1h0zm19.2 0a6.161 6.161 0 004.161-1.608.691.691 0 00.221-.513.725.725 0 00-.07-.31L25.69 9.322a.1.1 0 00-.18 0l-4.198 8.86a.824.824 0 00-.079.353c0 .223.09.442.262.592a6.16 6.16 0 004.067 1.507h.022zm0 0v-.1.1h0zm-8.546-13.42a.1.1 0 00-.072.096v17.756a.1.1 0 00.1.1h5.867a.967.967 0 010 1.933H9.067a.967.967 0 110-1.934h5.866a.1.1 0 00.1-.1V7.312a.1.1 0 00-.071-.096 3.649 3.649 0 01-2.444-2.444.1.1 0 00-.095-.071H6.4a.967.967 0 010-1.933h6.023a.1.1 0 00.095-.072 3.633 3.633 0 016.963 0 .1.1 0 00.096.072H25.6a.967.967 0 110 1.933h-6.023a.1.1 0 00-.096.071 3.648 3.648 0 01-2.443 2.444zM12.7 19.14c0 .278-.104.547-.291.753a8.19 8.19 0 01-6.017 2.674s0 0 0 0h-.028a8.188 8.188 0 01-6.008-2.634.967.967 0 01-.256-.655v-.727c0-.419.093-.833.272-1.211l4.393-9.273a1.81 1.81 0 013.27 0l4.404 9.297c.172.363.26.759.26 1.16v.616zM25.6 7.033c.699 0 1.336.403 1.635 1.035l4.404 9.297c.172.363.26.759.26 1.16v.616c0 .278-.103.547-.29.752a8.19 8.19 0 01-6.017 2.675s0 0 0 0h-.028a8.188 8.188 0 01-6.008-2.634.966.966 0 01-.256-.655v-.727c0-.419.093-.833.272-1.211l4.393-9.273A1.81 1.81 0 0125.6 7.033zM14.586 2.79a1.7 1.7 0 102.827 1.889 1.7 1.7 0 00-2.827-1.89z" fill="#34393B" stroke="#fff" stroke-width=".2" stroke-linecap="round" stroke-linejoin="round"/></svg>